Results
version=1
nRows=22
nColumns=24
inDegrees=yes
endheader
time	pelvis_tilt	pelvis_list	pelvis_rotation	pelvis_tx	pelvis_ty	pelvis_tz	hip_flexion_r	hip_adduction_r	hip_rotation_r	knee_angle_r	ankle_angle_r	subtalar_angle_r	mtp_angle_r	hip_flexion_l	hip_adduction_l	hip_rotation_l	knee_angle_l	ankle_angle_l	subtalar_angle_l	mtp_angle_l	lumbar_extension	lumbar_bending	lumbar_rotation
      1.14866667	     -4.02820759	      2.10874583	     -4.05516084	      0.22841862	      1.05889256	      0.27549545	     21.61361463	     -7.00027608	     -6.53687379	    -73.90019393	      0.06430372	     -6.21403597	      9.94184729	     15.66526649	      1.31581642	      2.86710784	    -20.73472185	     10.66067990	      2.13881693	      5.82829199	     -6.72352180	     -4.77837237	      2.21334060
      1.15283333	     -4.01975717	      1.95506009	     -4.10157020	      0.23394767	      1.06039238	      0.27562334	     22.12767926	     -6.73577813	     -6.63629330	    -73.60371989	      0.30715259	     -5.91469340	      9.95522320	     15.01623640	      1.14674682	      2.85345765	    -20.11784528	     10.57104993	      2.12290829	      5.83709712	     -6.75218518	     -4.61892637	      2.15457194
      1.15700000	     -3.97918803	      1.84023341	     -4.12077940	      0.23949251	      1.06187354	      0.27567029	     22.59298053	     -6.54188414	     -6.76951226	    -73.26298727	      0.60213793	     -5.52822862	      9.98229420	     14.31966196	      1.04042442	      2.91695797	    -19.46359012	     10.51429551	      2.02953656	      5.85592628	     -6.80419591	     -4.49337225	      2.04327075
      1.16116667	     -3.95742480	      1.71774392	     -4.13289134	      0.24501971	      1.06327919	      0.27572556	     23.06213883	     -6.33317024	     -6.90682463	    -72.85621302	      0.87169430	     -5.18581553	     10.01929272	     13.64954651	      0.92294965	      2.97789678	    -18.81620110	     10.41023582	      1.92883265	      5.87885473	     -6.84400361	     -4.35557465	      1.93157883
      1.16533333	     -3.94157722	      1.57628209	     -4.13143873	      0.25054600	      1.06462828	      0.27575987	     23.51469239	     -6.10585897	     -7.06330238	    -72.38178947	      1.12657117	     -4.85828692	     10.05814418	     12.99471895	      0.78481583	      3.03723619	    -18.18621619	     10.32794466	      1.86284230	      5.89896733	     -6.87883529	     -4.19306776	      1.82857410
      1.16950000	     -3.91550366	      1.44992365	     -4.11489185	      0.25606682	      1.06594276	      0.27576052	     23.94123494	     -5.90643789	     -7.23479007	    -71.85316943	      1.38691632	     -4.53996485	     10.10513697	     12.32837703	      0.66907129	      3.12498902	    -17.54540052	     10.22492638	      1.76043480	      5.92155759	     -6.93052971	     -4.04648591	      1.69889093
      1.17366667	     -3.90384474	      1.31618293	     -4.08341814	      0.26157163	      1.06716879	      0.27573667	     24.36570221	     -5.70037913	     -7.41851907	    -71.26710025	      1.63706861	     -4.26404080	     10.16460968	     11.68413055	      0.54691922	      3.23627926	    -16.91111476	     10.10033439	      1.65103844	      5.95064722	     -6.97291868	     -3.88054328	      1.55198085
      1.17783333	     -3.87380858	      1.17210696	     -4.03824604	      0.26708829	      1.06837959	      0.27568986	     24.74417011	     -5.49278127	     -7.62456386	    -70.61268622	      1.87144304	     -3.98735162	     10.21263509	     11.03244445	      0.41354831	      3.32301838	    -16.30388204	     10.02920505	      1.57123205	      5.97187100	     -7.02031007	     -3.70782022	      1.43249743
      1.18200000	     -3.84790932	      1.04779092	     -3.98237472	      0.27257834	      1.06950027	      0.27561597	     25.12033261	     -5.31258059	     -7.83018907	    -69.92053701	      2.11710809	     -3.73925214	     10.27257045	     10.38408978	      0.30601242	      3.46132953	    -15.68171489	      9.91545206	      1.44130750	      5.99857207	     -7.08287244	     -3.55021758	      1.25913915
      1.18616667	     -3.83729054	      0.91515671	     -3.91221103	      0.27806465	      1.07053028	      0.27552539	     25.49224373	     -5.12686036	     -8.05173123	    -69.17101976	      2.34502556	     -3.52163761	     10.33236412	      9.76715802	      0.18800300	      3.59626998	    -15.08763497	      9.81867156	      1.32212753	      6.02610263	     -7.12175113	     -3.37857879	      1.09929398
      1.19033333	     -3.82214791	      0.79648947	     -3.83399358	      0.28353396	      1.07149577	      0.27542753	     25.84739824	     -4.95934199	     -8.27157090	    -68.37701998	      2.57773185	     -3.34572123	     10.40320507	      9.14834979	      0.08545956	      3.75330355	    -14.49031779	      9.68728637	      1.17734892	      6.05960547	     -7.17493022	     -3.22588200	      0.91671139
      1.19450000	     -3.82473513	      0.66315610	     -3.74233281	      0.28901281	      1.07235099	      0.27528778	     26.20073187	     -4.78499182	     -8.51050019	    -67.52767559	      2.78534232	     -3.18259729	     10.45928817	      8.56775227	     -0.03461435	      3.89385735	    -13.93739218	      9.63548208	      1.07939629	      6.08710637	     -7.19616094	     -3.04699491	      0.75712387
      1.19866667	     -3.82807923	      0.53623808	     -3.64337312	      0.29447164	      1.07314041	      0.27514860	     26.54063719	     -4.61945148	     -8.75037283	    -66.63152357	      2.98834374	     -3.05111061	     10.50842611	      7.99738700	     -0.14932257	      4.03993662	    -13.39540494	      9.56820039	      0.96987698	      6.11057544	     -7.22119260	     -2.87399497	      0.58884242
      1.20283333	     -3.83627367	      0.41881906	     -3.53682982	      0.29991612	      1.07384319	      0.27499949	     26.87264357	     -4.46662591	     -8.98835911	    -65.69180973	      3.18684543	     -2.95162471	     10.55636234	      7.43886352	     -0.25378493	      4.20416883	    -12.86056491	      9.49700122	      0.84533349	      6.13334256	     -7.24611191	     -2.70888901	      0.40299524
      1.20700000	     -3.85830017	      0.30089382	     -3.42317908	      0.30536661	      1.07444871	      0.27484390	     27.20220717	     -4.31587974	     -9.22952908	    -64.70454583	      3.37613115	     -2.87594251	     10.59750109	      6.90874239	     -0.36160087	      4.36368097	    -12.35499038	      9.44328237	      0.73572156	      6.15332657	     -7.25184608	     -2.54384152	      0.22947599
      1.21116667	     -3.87531765	      0.19493575	     -3.30491378	      0.31077554	      1.07497683	      0.27467856	     27.51714275	     -4.17948669	     -9.46082106	    -63.67986155	      3.57853776	     -2.83237007	     10.64993391	      6.37861819	     -0.45526830	      4.55905252	    -11.85028412	      9.34919408	      0.57733425	      6.17954534	     -7.27833457	     -2.39551496	      0.01231304
      1.21533333	     -3.89570737	      0.08095410	     -3.18362704	      0.31619683	      1.07542395	      0.27450790	     27.81584691	     -4.03866842	     -9.69974239	    -62.60338475	      3.73992558	     -2.79467748	     10.68642492	      5.86924490	     -0.56095740	      4.72185912	    -11.38675330	      9.34733585	      0.47344777	      6.19929476	     -7.29033325	     -2.23192594	     -0.15526611
      1.21950000	     -3.94911148	     -0.00864937	     -3.05743879	      0.32160710	      1.07572575	      0.27434270	     28.14229381	     -3.92296770	     -9.92777713	    -61.49777980	      3.92773173	     -2.78100395	     10.72769883	      5.40354534	     -0.64221420	      4.90926208	    -10.93132536	      9.29081889	      0.32134882	      6.21921071	     -7.26462922	     -2.09456593	     -0.35962315
      1.22366667	     -4.00666427	     -0.12089330	     -2.93582910	      0.32700668	      1.07595582	      0.27419909	     28.45099694	     -3.77722274	    -10.14819707	    -60.33287527	      4.09374609	     -2.76164238	     10.74087438	      4.97340642	     -0.75605952	      5.01209674	    -10.54730138	      9.32077420	      0.31521400	      6.22561911	     -7.23725139	     -1.94789070	     -0.43288544
      1.22783333	     -4.05046991	     -0.19978439	     -2.80807080	      0.33238979	      1.07610576	      0.27403042	     28.74016370	     -3.67598535	    -10.36209172	    -59.14709794	      4.22993780	     -2.77854887	     10.76772089	      4.51002151	     -0.82512475	      5.23872993	    -10.11730310	      9.32957624	      0.12281393	      6.23605623	     -7.22850311	     -1.80765930	     -0.71209758
      1.23200000	     -4.14255153	     -0.28795259	     -2.68685371	      0.33777819	      1.07610137	      0.27390694	     29.06170637	     -3.55304040	    -10.56147826	    -57.91102941	      4.40666648	     -2.76923369	     10.78030965	      4.13742292	     -0.91627102	      5.35014144	     -9.77182447	      9.35932864	      0.08695417	      6.24002601	     -7.16004436	     -1.68895889	     -0.79557950
      1.23616667	     -4.20987938	     -0.35651531	     -2.56386499	      0.34315442	      1.07605683	      0.27376647	     29.34688265	     -3.45737454	    -10.75406311	    -56.64512029	      4.53254338	     -2.79518330	     10.80295339	      3.72004043	     -0.97958897	      5.56431953	     -9.38473099	      9.39257729	     -0.09620676	      6.24392654	     -7.12204143	     -1.56036413	     -1.04795000
